<?xml version="1.0" encoding="UTF-8" standalone="no"?>
<!-- Created with Inkscape (http://www.inkscape.org/) -->

<svg
   width="260mm"
   height="100mm"
   viewBox="0 0 260 100"
   version="1.1"
   id="svg5"
   inkscape:version="1.2.2 (b0a8486541, 2022-12-01)"
   sodipodi:docname="audihose-logo.svg"
   inkscape:export-filename="audihose-logo.png"
   inkscape:export-xdpi="48.381"
   inkscape:export-ydpi="48.381"
   xmlns:inkscape="http://www.inkscape.org/namespaces/inkscape"
   xmlns:sodipodi="http://sodipodi.sourceforge.net/DTD/sodipodi-0.dtd"
   xmlns="http://www.w3.org/2000/svg"
   xmlns:svg="http://www.w3.org/2000/svg">
  <sodipodi:namedview
     id="namedview7"
     pagecolor="#505050"
     bordercolor="#eeeeee"
     borderopacity="1"
     inkscape:showpageshadow="0"
     inkscape:pageopacity="0"
     inkscape:pagecheckerboard="0"
     inkscape:deskcolor="#505050"
     inkscape:document-units="mm"
     showgrid="false"
     inkscape:zoom="0.56504558"
     inkscape:cx="488.45617"
     inkscape:cy="422.08984"
     inkscape:window-width="1920"
     inkscape:window-height="1008"
     inkscape:window-x="0"
     inkscape:window-y="0"
     inkscape:window-maximized="1"
     inkscape:current-layer="layer1" />
  <defs
     id="defs2">
    <rect
       x="141.5815"
       y="292.01184"
       width="658.354"
       height="307.93976"
       id="rect5837" />
    <rect
       x="141.5815"
       y="292.01184"
       width="155.73965"
       height="293.78162"
       id="rect5837-3" />
  </defs>
  <g
     inkscape:label="Layer 1"
     inkscape:groupmode="layer"
     id="layer1">
    <g
       id="g5055"
       transform="matrix(0.32299575,0,0,0.3753444,169.89307,-18.348537)">
      <g
         id="g3499">
        <g
           id="g2688"
           transform="translate(-23.177258,6.6220736)">
          <path
             style="fill:none;stroke:#000000;stroke-width:0.264583px;stroke-linecap:butt;stroke-linejoin:miter;stroke-opacity:1"
             d="m 86.418059,108.93311 c 0,0 -44.698996,10.26421 -53.307691,32.44816 -8.608696,22.18395 16.886288,41.05686 68.538462,50.32776 51.65217,9.2709 55.29431,36.75251 34.10368,46.68562 -21.19064,9.93311 -83.107026,36.09029 -83.107026,36.09029"
             id="path2564" />
          <g
             id="g2682">
            <path
               style="fill:none;stroke:#000000;stroke-width:0.264583px;stroke-linecap:butt;stroke-linejoin:miter;stroke-opacity:1"
               d="m 99.045012,116.22094 c 0,0 -44.698994,5.95985 -53.307689,28.1438 -8.608696,22.18396 25.302308,29.41912 76.153837,42.38127 50.65886,12.91304 40.06355,49.99666 18.87292,59.92977 -21.19064,9.93311 -83.769233,35.75919 -83.769233,35.75919"
               id="path2564-3"
               sodipodi:nodetypes="csssc"
               transform="translate(1.2273348e-6)" />
            <path
               style="fill:none;stroke:#000000;stroke-width:0.264583px;stroke-linecap:butt;stroke-linejoin:miter;stroke-opacity:1"
               d="m 52.736805,274.4538 4.36059,8.04807"
               id="path2678" />
          </g>
        </g>
        <g
           id="g2508"
           transform="rotate(-17.868518,147.48423,138.88349)">
          <path
             id="rect398"
             style="fill:#987b40;fill-opacity:1;stroke:#000000;stroke-width:0.3;stroke-dasharray:none"
             d="m 86.976874,86.81131 36.793746,3.724916 c 0.82125,0.08314 3.89047,-3.060391 3.89047,-2.23495 v 15.603114 c 0,0.82544 -3.06886,-2.14889 -3.89047,-2.0694 l -36.793746,3.55936 c -0.821606,0.0795 -1.489966,-0.66452 -1.489966,-1.48996 V 88.301276 c 0,-0.825441 0.668723,-1.573107 1.489966,-1.489966 z"
             sodipodi:nodetypes="sssssssss" />
          <rect
             style="fill:#987b40;fill-opacity:1;stroke:#000000;stroke-width:0.3;stroke-dasharray:none"
             id="rect234"
             width="11.578175"
             height="22.835699"
             x="75.032722"
             y="84.602219"
             ry="0.99331105" />
        </g>
        <path
           style="fill:#156834;fill-opacity:1;stroke:#000000;stroke-width:0.375425;stroke-dasharray:none"
           d="m 32.03428,284.9735 c -1.994535,-3.78225 -2.093547,-4.03204 -1.598197,-4.03204 0.35723,0 41.618746,-17.63218 57.306392,-24.4886 25.693085,-11.22937 29.361105,-13.08745 32.490615,-16.4585 3.26361,-3.51549 4.61866,-6.77652 4.65462,-11.20172 0.0402,-4.95229 -2.23122,-9.57711 -6.93608,-14.12226 -3.18996,-3.08169 -5.88192,-4.99437 -10.34294,-7.34885 -7.719142,-4.07408 -15.82429,-6.61823 -30.295982,-9.50971 -21.607454,-4.31721 -34.089339,-8.20599 -46.165288,-14.38299 -7.636028,-3.90593 -14.657763,-9.43739 -18.095536,-14.255 -9.4705355,-13.27176 -3.6243605,-28.25275 15.443761,-39.57504 8.290869,-4.92297 20.589774,-9.95032 31.481328,-12.86844 l 3.558789,-0.95349 1.376849,4.13156 c 0.757267,2.27235 1.31173,4.19667 1.232138,4.27626 -0.07959,0.0796 -2.320414,0.74127 -4.979606,1.47039 -13.599396,3.72882 -23.976891,8.5757 -30.82472,14.3969 -6.501572,5.52685 -10.239989,13.41606 -9.208307,19.43237 1.342115,7.8266 8.382963,13.38922 24.560191,19.40378 8.155514,3.03216 18.237888,5.91395 41.232581,11.7853 17.579222,4.4886 20.551832,5.43493 27.140332,8.64012 9.21484,4.48287 14.89167,9.61884 18.24425,16.50601 1.99754,4.10354 2.57042,6.95776 2.36051,11.76079 -0.19999,4.57657 -0.75356,6.80596 -2.68524,10.81431 -1.7551,3.64194 -3.71314,6.27777 -6.9417,9.34459 -4.05411,3.851 -6.424,5.03932 -32.002909,16.04701 -18.094893,7.787 -57.352947,24.30436 -58.60535,24.6575 -0.349726,0.0986 -1.059878,-0.928 -2.400501,-3.47025 z"
           id="path2693" />
      </g>
      <path
         style="fill:none;stroke:#000000;stroke-width:1.5;stroke-linecap:butt;stroke-linejoin:miter;stroke-dasharray:none;stroke-opacity:1"
         d="m 123.15009,71.642449 c 0,0 30.90459,10.535655 22.24194,32.777591 -8.66265,22.24194 -8.42853,22.24194 -8.42853,22.24194"
         id="path3501" />
      <path
         style="fill:none;stroke:#000000;stroke-width:1.91266;stroke-linecap:butt;stroke-linejoin:miter;stroke-dasharray:none;stroke-opacity:1"
         d="m 150.00633,124.3143 c 0,0 36.98188,-27.859801 13.16551,-44.151182 C 139.35545,63.871717 139.67822,63.737009 139.67822,63.737009"
         id="path3501-7" />
      <path
         style="fill:none;stroke:#000000;stroke-width:0.928092;stroke-linecap:butt;stroke-linejoin:miter;stroke-dasharray:none;stroke-opacity:1"
         d="m 122.68463,116.16795 c 0,0 17.6851,-14.23715 7.13234,-22.596879 -10.55277,-8.35974 -10.40108,-8.42847 -10.40108,-8.42847"
         id="path3501-6" />
    </g>
    <text
       xml:space="preserve"
       transform="matrix(0.26458333,0,0,0.26458333,-32.777591,-56.190157)"
       id="text5835"
       style="font-style:normal;font-weight:normal;font-size:226.667px;line-height:1.25;font-family:sans-serif;white-space:pre;shape-inside:url(#rect5837);display:inline;fill:#000000;fill-opacity:1;stroke:none"><tspan
         x="141.58203"
         y="531.95778"
         id="tspan545"><tspan
           style="font-family:'Kisah Ceritra';-inkscape-font-specification:'Kisah Ceritra'"
           id="tspan543">AUDIHO</tspan></tspan></text>
    <text
       xml:space="preserve"
       transform="matrix(0.26458333,0,0,0.26458333,179.03206,-55.648415)"
       id="text5835-6"
       style="font-style:normal;font-weight:normal;font-size:226.667px;line-height:1.25;font-family:sans-serif;white-space:pre;shape-inside:url(#rect5837-3);display:inline;fill:#000000;fill-opacity:1;stroke:none"><tspan
         x="141.58203"
         y="531.95778"
         id="tspan549"><tspan
           style="font-family:'Kisah Ceritra';-inkscape-font-specification:'Kisah Ceritra'"
           id="tspan547">E</tspan></tspan></text>
  </g>
</svg>
